<svg width="161" height="22" viewBox="0 0 161 22" fill="none" xmlns="http://www.w3.org/2000/svg">
<path d="M4.434 2.852V21H0.794V2.852H4.434ZM12.2683 9.586V16.554C12.2683 17.0393 12.381 17.3947 12.6063 17.62C12.849 17.828 13.2477 17.932 13.8023 17.932H15.4923V21H13.2043C10.1363 21 8.60233 19.5093 8.60233 16.528V9.586H6.88633V6.596H8.60233V3.034H12.2683V6.596H15.4923V9.586H12.2683ZM29.1864 10.184V13.252H18.1624V10.184H29.1864ZM35.1146 4.88C34.4733 4.88 33.9359 4.68067 33.5026 4.282C33.0866 3.866 32.8786 3.35467 32.8786 2.748C32.8786 2.14133 33.0866 1.63867 33.5026 1.24C33.9359 0.823999 34.4733 0.615999 35.1146 0.615999C35.7559 0.615999 36.2846 0.823999 36.7006 1.24C37.1339 1.63867 37.3506 2.14133 37.3506 2.748C37.3506 3.35467 37.1339 3.866 36.7006 4.282C36.2846 4.68067 35.7559 4.88 35.1146 4.88ZM36.9086 6.596V21H33.2686V6.596H36.9086ZM48.4869 6.388C50.2029 6.388 51.5896 6.934 52.6469 8.026C53.7043 9.10067 54.2329 10.6087 54.2329 12.55V21H50.5929V13.044C50.5929 11.9 50.3069 11.0247 49.7349 10.418C49.1629 9.794 48.3829 9.482 47.3949 9.482C46.3896 9.482 45.5923 9.794 45.0029 10.418C44.4309 11.0247 44.1449 11.9 44.1449 13.044V21H40.5049V6.596H44.1449V8.39C44.6303 7.766 45.2456 7.28067 45.9909 6.934C46.7536 6.57 47.5856 6.388 48.4869 6.388ZM56.7584 13.798C56.7584 12.3073 57.0617 11.0073 57.6684 9.898C58.2751 8.77133 59.1157 7.90467 60.1904 7.298C61.2651 6.674 62.4957 6.362 63.8824 6.362C65.6677 6.362 67.1411 6.81267 68.3024 7.714C69.4811 8.598 70.2697 9.846 70.6684 11.458H66.7424C66.5344 10.834 66.1791 10.3487 65.6764 10.002C65.1911 9.638 64.5844 9.456 63.8564 9.456C62.8164 9.456 61.9931 9.83733 61.3864 10.6C60.7797 11.3453 60.4764 12.4113 60.4764 13.798C60.4764 15.1673 60.7797 16.2333 61.3864 16.996C61.9931 17.7413 62.8164 18.114 63.8564 18.114C65.3297 18.114 66.2917 17.4553 66.7424 16.138H70.6684C70.2697 17.698 69.4811 18.9373 68.3024 19.856C67.1237 20.7747 65.6504 21.234 63.8824 21.234C62.4957 21.234 61.2651 20.9307 60.1904 20.324C59.1157 19.7 58.2751 18.8333 57.6684 17.724C57.0617 16.5973 56.7584 15.2887 56.7584 13.798ZM86.933 6.596V21H83.267V19.18C82.799 19.804 82.1837 20.298 81.421 20.662C80.6757 21.0087 79.861 21.182 78.977 21.182C77.8503 21.182 76.8537 20.948 75.987 20.48C75.1203 19.9947 74.4357 19.2927 73.933 18.374C73.4477 17.438 73.205 16.3287 73.205 15.046V6.596H76.845V14.526C76.845 15.67 77.131 16.554 77.703 17.178C78.275 17.7847 79.055 18.088 80.043 18.088C81.0483 18.088 81.837 17.7847 82.409 17.178C82.981 16.554 83.267 15.67 83.267 14.526V6.596H86.933ZM94.1645 8.702C94.6325 8.00867 95.2738 7.44533 96.0885 7.012C96.9205 6.57867 97.8651 6.362 98.9225 6.362C100.153 6.362 101.262 6.66533 102.25 7.272C103.256 7.87867 104.044 8.74533 104.616 9.872C105.206 10.9813 105.5 12.2727 105.5 13.746C105.5 15.2193 105.206 16.528 104.616 17.672C104.044 18.7987 103.256 19.674 102.25 20.298C101.262 20.922 100.153 21.234 98.9225 21.234C97.8478 21.234 96.9031 21.026 96.0885 20.61C95.2911 20.1767 94.6498 19.622 94.1645 18.946V21H90.5245V1.76H94.1645V8.702ZM101.782 13.746C101.782 12.8793 101.6 12.134 101.236 11.51C100.89 10.8687 100.422 10.3833 99.8325 10.054C99.2605 9.72467 98.6365 9.56 97.9605 9.56C97.3018 9.56 96.6778 9.73333 96.0885 10.08C95.5165 10.4093 95.0485 10.8947 94.6845 11.536C94.3378 12.1773 94.1645 12.9313 94.1645 13.798C94.1645 14.6647 94.3378 15.4187 94.6845 16.06C95.0485 16.7013 95.5165 17.1953 96.0885 17.542C96.6778 17.8713 97.3018 18.036 97.9605 18.036C98.6365 18.036 99.2605 17.8627 99.8325 17.516C100.422 17.1693 100.89 16.6753 101.236 16.034C101.6 15.3927 101.782 14.63 101.782 13.746ZM107.21 13.746C107.21 12.29 107.496 10.9987 108.068 9.872C108.657 8.74533 109.446 7.87867 110.434 7.272C111.439 6.66533 112.557 6.362 113.788 6.362C114.862 6.362 115.798 6.57867 116.596 7.012C117.41 7.44533 118.06 7.99133 118.546 8.65V6.596H122.212V21H118.546V18.894C118.078 19.57 117.428 20.1333 116.596 20.584C115.781 21.0173 114.836 21.234 113.762 21.234C112.548 21.234 111.439 20.922 110.434 20.298C109.446 19.674 108.657 18.7987 108.068 17.672C107.496 16.528 107.21 15.2193 107.21 13.746ZM118.546 13.798C118.546 12.914 118.372 12.16 118.026 11.536C117.679 10.8947 117.211 10.4093 116.622 10.08C116.032 9.73333 115.4 9.56 114.724 9.56C114.048 9.56 113.424 9.72467 112.852 10.054C112.28 10.3833 111.812 10.8687 111.448 11.51C111.101 12.134 110.928 12.8793 110.928 13.746C110.928 14.6127 111.101 15.3753 111.448 16.034C111.812 16.6753 112.28 17.1693 112.852 17.516C113.441 17.8627 114.065 18.036 114.724 18.036C115.4 18.036 116.032 17.8713 116.622 17.542C117.211 17.1953 117.679 16.71 118.026 16.086C118.372 15.4447 118.546 14.682 118.546 13.798ZM130.005 9.586V16.554C130.005 17.0393 130.117 17.3947 130.343 17.62C130.585 17.828 130.984 17.932 131.539 17.932H133.229V21H130.941C127.873 21 126.339 19.5093 126.339 16.528V9.586H124.623V6.596H126.339V3.034H130.005V6.596H133.229V9.586H130.005ZM142.243 21.234C140.856 21.234 139.608 20.9307 138.499 20.324C137.389 19.7 136.514 18.8247 135.873 17.698C135.249 16.5713 134.937 15.2713 134.937 13.798C134.937 12.3247 135.257 11.0247 135.899 9.898C136.557 8.77133 137.45 7.90467 138.577 7.298C139.703 6.674 140.96 6.362 142.347 6.362C143.733 6.362 144.99 6.674 146.117 7.298C147.243 7.90467 148.127 8.77133 148.769 9.898C149.427 11.0247 149.757 12.3247 149.757 13.798C149.757 15.2713 149.419 16.5713 148.743 17.698C148.084 18.8247 147.183 19.7 146.039 20.324C144.912 20.9307 143.647 21.234 142.243 21.234ZM142.243 18.062C142.901 18.062 143.517 17.906 144.089 17.594C144.678 17.2647 145.146 16.7793 145.493 16.138C145.839 15.4967 146.013 14.7167 146.013 13.798C146.013 12.4287 145.649 11.38 144.921 10.652C144.21 9.90667 143.335 9.534 142.295 9.534C141.255 9.534 140.379 9.90667 139.669 10.652C138.975 11.38 138.629 12.4287 138.629 13.798C138.629 15.1673 138.967 16.2247 139.643 16.97C140.336 17.698 141.203 18.062 142.243 18.062ZM156.067 8.832C156.535 8.06933 157.141 7.47133 157.887 7.038C158.649 6.60467 159.516 6.388 160.487 6.388V10.21H159.525C158.381 10.21 157.514 10.4787 156.925 11.016C156.353 11.5533 156.067 12.4893 156.067 13.824V21H152.427V6.596H156.067V8.832Z" fill="#2D2E46"/>
</svg>
